<svg width="64" height="64" viewBox="0 0 64 64" fill="none" xmlns="http://www.w3.org/2000/svg">
<rect width="64" height="64" rx="14" fill="#0A4B9E"/>
<rect x="28" y="12" width="8" height="40" rx="2" fill="#FFFFFF"/>
<rect x="12" y="28" width="40" height="8" rx="2" fill="#FFFFFF"/>
<circle cx="46" cy="46" r="10" fill="#F7FAFC"/>
<path d="M43.5 44.5C43.5 42.8431 44.8431 41.5 46.5 41.5C48.1569 41.5 49.5 42.8431 49.5 44.5C49.5 45.7956 48.6784 46.8993 47.5286 47.3168V49.5H45.4714V47.3168C44.3216 46.8993 43.5 45.7956 43.5 44.5Z" fill="#0A4B9E"/>
<path d="M40.5 46C40.5 42.6863 43.1863 40 46.5 40C49.8137 40 52.5 42.6863 52.5 46H50.5C50.5 43.7909 48.7091 42 46.5 42C44.2909 42 42.5 43.7909 42.5 46H40.5Z" fill="#0A4B9E"/>
</svg>
